<svg width="24" height="25" viewBox="0 0 24 25" fill="none" xmlns="http://www.w3.org/2000/svg">
<path d="M13 8.5V4.5C13 4.21667 13.096 3.979 13.288 3.787C13.4793 3.59567 13.7167 3.5 14 3.5H20C20.2833 3.5 20.5207 3.59567 20.712 3.787C20.904 3.979 21 4.21667 21 4.5V8.5C21 8.78333 20.904 9.02067 20.712 9.212C20.5207 9.404 20.2833 9.5 20 9.5H14C13.7167 9.5 13.4793 9.404 13.288 9.212C13.096 9.02067 13 8.78333 13 8.5ZM3 12.5V4.5C3 4.21667 3.096 3.979 3.288 3.787C3.47933 3.59567 3.71667 3.5 4 3.5H10C10.2833 3.5 10.521 3.59567 10.713 3.787C10.9043 3.979 11 4.21667 11 4.5V12.5C11 12.7833 10.9043 13.0207 10.713 13.212C10.521 13.404 10.2833 13.5 10 13.5H4C3.71667 13.5 3.47933 13.404 3.288 13.212C3.096 13.0207 3 12.7833 3 12.5ZM13 20.5V12.5C13 12.2167 13.096 11.979 13.288 11.787C13.4793 11.5957 13.7167 11.5 14 11.5H20C20.2833 11.5 20.5207 11.5957 20.712 11.787C20.904 11.979 21 12.2167 21 12.5V20.5C21 20.7833 20.904 21.0207 20.712 21.212C20.5207 21.404 20.2833 21.5 20 21.5H14C13.7167 21.5 13.4793 21.404 13.288 21.212C13.096 21.0207 13 20.7833 13 20.5ZM3 20.5V16.5C3 16.2167 3.096 15.979 3.288 15.787C3.47933 15.5957 3.71667 15.5 4 15.5H10C10.2833 15.5 10.521 15.5957 10.713 15.787C10.9043 15.979 11 16.2167 11 16.5V20.5C11 20.7833 10.9043 21.0207 10.713 21.212C10.521 21.404 10.2833 21.5 10 21.5H4C3.71667 21.5 3.47933 21.404 3.288 21.212C3.096 21.0207 3 20.7833 3 20.5ZM5 11.5H9V5.5H5V11.5ZM15 19.5H19V13.5H15V19.5ZM15 7.5H19V5.5H15V7.5ZM5 19.5H9V17.5H5V19.5Z" fill="#222222"/>
</svg>
