<svg width="16" height="17" viewBox="0 0 16 17" fill="none" xmlns="http://www.w3.org/2000/svg">
<path d="M1.88604 11.4924C2.99413 12.6021 4.46977 13.2682 6.03495 13.3654C7.60013 13.4625 9.1468 12.9839 10.3836 12.0198L14.6392 16.2754C14.7901 16.4211 14.9922 16.5018 15.202 16.5C15.4119 16.4981 15.6126 16.414 15.7609 16.2656C15.9093 16.1173 15.9935 15.9165 15.9953 15.7067C15.9971 15.4969 15.9165 15.2948 15.7707 15.1439L11.5151 10.8883C12.522 9.59605 12.9981 7.96839 12.8462 6.33723C12.6943 4.70608 11.9259 3.1943 10.6977 2.11022C9.46946 1.02613 7.87396 0.451397 6.23657 0.503224C4.59918 0.55505 3.04323 1.22954 1.88604 2.38912C1.28811 2.98675 0.813791 3.69632 0.490178 4.47731C0.166565 5.2583 0 6.0954 0 6.94078C0 7.78617 0.166565 8.62327 0.490178 9.40425C0.813791 10.1852 1.28811 10.8948 1.88604 11.4924ZM3.01755 3.52224C3.80863 2.73118 4.84952 2.23888 5.96287 2.12921C7.07622 2.01954 8.19316 2.2993 9.12337 2.92081C10.0536 3.54232 10.7395 4.46714 11.0643 5.53769C11.3891 6.60824 11.3327 7.75829 10.9047 8.7919C10.4766 9.82552 9.70343 10.6787 8.71683 11.2062C7.73024 11.7337 6.59128 11.9027 5.49401 11.6846C4.39675 11.4664 3.40905 10.8746 2.69922 10.0099C1.98939 9.1452 1.60133 8.06113 1.60116 6.94238C1.59896 6.30667 1.72304 5.67684 1.96618 5.08946C2.20932 4.50207 2.56669 3.96882 3.01755 3.52064V3.52224Z" fill="#222222"/>
</svg>
